<svg xmlns="http://www.w3.org/2000/svg" width="64" height="64" viewBox="0 0 64 64">
  <rect x="0" y="0" width="64" height="64" rx="10" fill="#1ABC9C"/>
  <path d="M20.75 33.853v-3.696h8.322c1.423 0 2.733-.306 3.93-.919 1.197-.614 2.22-1.476 3.067-2.585.847-1.11 1.483-2.414 1.907-3.915.424-1.5.636-3.068.636-4.703 0-1.523-.168-3.008-.504-4.453-.336-1.446-.825-2.758-1.467-3.939-.641-1.18-1.437-2.191-2.386-3.031-.95-.84-2.062-1.494-3.336-1.96-1.274-.465-2.636-.699-4.085-.699H14.792v20.123h5.958zm7.17-5.544h-4.507v-4.09h4.507c1.285 0 2.401.25 3.347.748.946.498 1.704 1.183 2.274 2.053.569.87.854 1.85.854 2.937 0 1.122-.272 2.103-.816 2.943-.544.84-1.317 1.503-2.318 1.99-.997.487-2.137.73-3.42.73zm22.439-11.543l-5.952 5.941 5.952 5.942v-3.89h6.66v-4.205h-6.66v-3.788zm-11.926 0l-5.953 5.941 5.953 5.942v-3.89h6.659v-4.205h-6.659v-3.788zm-2.902-7.719c-2.67 0-4.834.818-6.492 2.456-1.657 1.637-2.486 3.84-2.486 6.608v7.978h6.659V27.937c0-.94.203-1.754.61-2.44.408-.685.984-1.232 1.728-1.639.743-.406 1.607-.609 2.59-.609h6.245v-5.073h-5.506z" fill="#FFF"/>
</svg>
